<svg width="13" height="17" viewBox="0 0 13 17" fill="none" xmlns="http://www.w3.org/2000/svg">
<path fill-rule="evenodd" clip-rule="evenodd" d="M6.25001 0C4.20801 0 2.53801 1.653 2.50401 3.687C2.50101 3.708 2.50001 3.729 2.50001 3.75V4.421C2.45762 4.4236 2.41247 4.42524 2.36707 4.42688H2.36706C2.29036 4.42966 2.21296 4.43246 2.14701 4.44C1.56001 4.506 1.04301 4.65 0.662006 5.031C0.280006 5.412 0.136006 5.929 0.0690063 6.517C0.00578391 7.08025 0.00587605 7.75637 0.00599578 8.63501L0.00600635 8.752V11.784C0.00200635 11.815 6.34798e-06 11.846 6.34798e-06 11.877L3.14173e-06 11.9561C-5.15963e-05 12.8532 -9.35403e-05 13.5407 0.0650063 14.112C0.131006 14.7 0.275006 15.216 0.657006 15.597C1.03801 15.979 1.55501 16.122 2.14201 16.188C2.7131 16.2521 3.39928 16.2521 4.29491 16.252L4.37501 16.252H4.38101H8.12501C8.13089 16.252 8.13677 16.2518 8.14276 16.2515C8.14901 16.2513 8.15538 16.251 8.16201 16.251H8.20298C9.09706 16.251 9.78769 16.251 10.358 16.187C10.945 16.121 11.461 15.978 11.843 15.596C12.225 15.215 12.369 14.699 12.435 14.111C12.5 13.5327 12.5 12.834 12.5 11.9212V11.9211V11.88V11.876V8.755V8.754V8.752L12.5 8.67295V8.67286C12.5001 7.77575 12.5001 7.08832 12.435 6.517C12.369 5.929 12.225 5.412 11.843 5.031C11.461 4.65 10.945 4.506 10.358 4.44C10.293 4.43271 10.2172 4.42948 10.142 4.42627L10.1419 4.42627C10.0934 4.4242 10.0451 4.42214 10 4.419V3.75C10 3.727 9.99901 3.703 9.99601 3.68C9.95801 1.649 8.28901 0 6.25001 0ZM6.25001 1.25C7.63701 1.25 8.75001 2.364 8.75001 3.75V4.38C8.65622 4.38 8.5674 4.37929 8.47607 4.37856H8.47604C8.37943 4.37779 8.28003 4.377 8.16901 4.377L8.16636 4.37682C8.15235 4.37589 8.13912 4.375 8.12501 4.375H4.38101C4.36987 4.375 4.35873 4.37586 4.34679 4.37678L4.34401 4.377C4.23033 4.377 4.12856 4.37779 4.02972 4.37856C3.93639 4.37929 3.84568 4.38 3.75001 4.38V3.75C3.75001 2.364 4.86301 1.25 6.25001 1.25ZM8.08101 5.625H4.41201L4.41101 5.626C4.40601 5.626 4.40101 5.62625 4.39601 5.6265C4.39101 5.62675 4.38601 5.627 4.38101 5.627C3.44601 5.627 2.75301 5.631 2.28701 5.683C1.82101 5.735 1.63401 5.827 1.54501 5.915C1.45701 6.003 1.36501 6.191 1.31201 6.657C1.26001 7.123 1.25601 7.816 1.25601 8.752V11.877C1.25601 11.906 1.25501 11.935 1.25101 11.965C1.25101 12.85 1.25501 13.522 1.30601 13.971C1.35901 14.438 1.45101 14.625 1.53901 14.714C1.62801 14.802 1.81501 14.893 2.28101 14.946C2.74701 14.998 3.44001 15.002 4.37501 15.002H4.38101H8.09301C8.09851 15.0015 8.10376 15.0012 8.10901 15.001C8.11426 15.0007 8.11951 15.0005 8.12501 15C9.05901 15 9.75201 14.998 10.218 14.946C10.684 14.893 10.872 14.801 10.961 14.712C11.049 14.624 11.141 14.436 11.194 13.97C11.246 13.505 11.25 12.813 11.25 11.88V8.755V8.753V8.752C11.25 7.816 11.246 7.123 11.194 6.657C11.141 6.191 11.049 6.003 10.961 5.915C10.872 5.826 10.684 5.735 10.218 5.683C9.75201 5.631 9.05901 5.627 8.12501 5.627C8.11089 5.627 8.09766 5.62611 8.08365 5.62518L8.08101 5.625Z" fill="#D70404"/>
<path fill-rule="evenodd" clip-rule="evenodd" d="M6.252 8.125C5.92 8.125 5.602 8.257 5.367 8.491C5.132 8.726 5 9.045 5 9.377C5 9.597 5.058 9.813 5.168 10.003C5.279 10.193 5.437 10.351 5.627 10.461V11.877C5.626 11.96 5.641 12.042 5.672 12.119C5.703 12.196 5.749 12.266 5.807 12.325C5.865 12.384 5.935 12.431 6.011 12.463C6.088 12.495 6.17 12.511 6.252 12.511C6.335 12.511 6.417 12.495 6.494 12.463C6.57 12.431 6.639 12.384 6.697 12.325C6.756 12.266 6.801 12.196 6.832 12.119C6.863 12.042 6.879 11.96 6.877 11.877V10.46C7.068 10.35 7.226 10.192 7.336 10.002C7.446 9.812 7.504 9.597 7.505 9.377C7.505 9.045 7.373 8.726 7.138 8.491C6.903 8.257 6.585 8.125 6.252 8.125Z" fill="#D70404"/>
</svg>
