<svg width="329" height="330" viewBox="0 0 329 330" fill="none" xmlns="http://www.w3.org/2000/svg">
<g filter="url(#filter0_d_129_2764)">
<circle cx="140" cy="182" r="120" fill="#F6F8FB"/>
</g>
<mask id="mask0_129_2764" style="mask-type:alpha" maskUnits="userSpaceOnUse" x="7" y="0" width="240" height="240">
<circle cx="127" cy="120" r="120" fill="#F6F8FB"/>
</mask>
<g mask="url(#mask0_129_2764)">
<mask id="mask1_129_2764" style="mask-type:alpha" maskUnits="userSpaceOnUse" x="7" y="0" width="240" height="240">
<circle cx="127" cy="120" r="120" fill="#F6F8FB"/>
</mask>
<g mask="url(#mask1_129_2764)">
<g filter="url(#filter1_d_129_2764)">
<rect x="42" y="45" width="170" height="195" rx="20" fill="white"/>
</g>
<rect x="54" y="65" width="146" height="35" rx="8" fill="#F4F6FA"/>
<circle cx="182" cy="83" r="6" fill="#DFE2E8"/>
<circle cx="71.5" cy="82.5" r="11.5" fill="#85C0F9"/>
<rect x="89" y="75" width="28" height="5" rx="2.5" fill="#E0E2E8"/>
<rect x="89" y="84" width="60" height="6" rx="3" fill="#E0E2E8"/>
<rect x="54" y="174" width="146" height="35" rx="8" fill="#F4F6FA"/>
<circle cx="182" cy="192" r="6" fill="#DFE2E8"/>
<circle cx="71.5" cy="191.5" r="11.5" fill="#85C0F9"/>
<rect x="89" y="184" width="28" height="5" rx="2.5" fill="#E0E2E8"/>
<rect x="89" y="193" width="60" height="6" rx="3" fill="#E0E2E8"/>
<rect x="54" y="221" width="146" height="35" rx="8" fill="#F4F6FA"/>
<circle cx="182" cy="239" r="6" fill="#DFE2E8"/>
<circle cx="71.5" cy="238.5" r="11.5" fill="#85C0F9"/>
<rect x="89" y="231" width="28" height="5" rx="2.5" fill="#E0E2E8"/>
<g filter="url(#filter2_d_129_2764)">
<rect x="27" y="112" width="200" height="50" rx="12" fill="#636B81"/>
</g>
<rect x="197" y="127" width="20" height="20" rx="8" fill="#B3D8FE"/>
<rect x="80" y="140" width="20" height="12" rx="6" fill="#E0E2E8"/>
<rect x="102" y="140" width="20" height="12" rx="6" fill="#E0E2E8"/>
<rect x="124" y="140" width="20" height="12" rx="6" fill="#E0E2E8"/>
<rect x="146" y="140" width="20" height="12" rx="6" fill="#E0E2E8"/>
<rect x="37" y="140" width="37" height="12" rx="6" fill="#E0E2E8"/>
<rect x="37" y="122" width="58" height="12" rx="6" fill="#E0E2E8"/>
</g>
</g>
<g filter="url(#filter3_d_129_2764)">
<mask id="path-27-outside-1_129_2764" maskUnits="userSpaceOnUse" x="175" y="246" width="14" height="16" fill="black">
<rect fill="white" x="175" y="246" width="14" height="16"/>
<path fill-rule="evenodd" clip-rule="evenodd" d="M179.159 255.235L178.429 254.12C177.93 253.358 176.868 253.08 176.056 253.498L176.245 253.4C176.043 253.504 175.947 253.762 176.03 253.977L177.04 256.592C177.201 257.007 177.61 257.593 177.949 257.887C177.949 257.887 179.982 259.57 179.982 260.201V261H183.276L184.1 259.353L184.923 261H185.747V260.201C185.747 259.57 186.989 257.583 186.989 257.583C187.218 257.197 187.409 256.516 187.409 256.064V252.741C187.394 252.006 186.769 251.41 185.997 251.41C185.611 251.41 185.298 251.708 185.298 252.076V252.342C185.298 251.606 184.673 251.01 183.901 251.01C183.515 251.01 183.203 251.308 183.203 251.676V251.942C183.203 251.207 182.577 250.61 181.806 250.61C181.42 250.61 181.107 250.909 181.107 251.277V251.543C181.107 251.424 181.094 251.33 181.07 251.256L180.857 247.825C180.828 247.361 180.437 247 179.982 247C179.524 247 179.159 247.369 179.159 247.823V251.118V255.235ZM184.938 254.412H185.762V257.706H184.938V254.412ZM183.291 254.412H184.115V257.706H183.291V254.412ZM181.644 254.412H182.468V257.706H181.644V254.412Z"/>
</mask>
<path fill-rule="evenodd" clip-rule="evenodd" d="M179.159 255.235L178.429 254.12C177.93 253.358 176.868 253.08 176.056 253.498L176.245 253.4C176.043 253.504 175.947 253.762 176.03 253.977L177.04 256.592C177.201 257.007 177.61 257.593 177.949 257.887C177.949 257.887 179.982 259.57 179.982 260.201V261H183.276L184.1 259.353L184.923 261H185.747V260.201C185.747 259.57 186.989 257.583 186.989 257.583C187.218 257.197 187.409 256.516 187.409 256.064V252.741C187.394 252.006 186.769 251.41 185.997 251.41C185.611 251.41 185.298 251.708 185.298 252.076V252.342C185.298 251.606 184.673 251.01 183.901 251.01C183.515 251.01 183.203 251.308 183.203 251.676V251.942C183.203 251.207 182.577 250.61 181.806 250.61C181.42 250.61 181.107 250.909 181.107 251.277V251.543C181.107 251.424 181.094 251.33 181.07 251.256L180.857 247.825C180.828 247.361 180.437 247 179.982 247C179.524 247 179.159 247.369 179.159 247.823V251.118V255.235ZM184.938 254.412H185.762V257.706H184.938V254.412ZM183.291 254.412H184.115V257.706H183.291V254.412ZM181.644 254.412H182.468V257.706H181.644V254.412Z" fill="white"/>
<path d="M179.159 255.235L178.322 255.783L180.159 258.589V255.235H179.159ZM178.429 254.12L179.265 253.572V253.572L178.429 254.12ZM176.03 253.977L175.097 254.338H175.097L176.03 253.977ZM177.04 256.592L177.973 256.231V256.231L177.04 256.592ZM177.949 257.887L177.293 258.642L177.302 258.65L177.311 258.658L177.949 257.887ZM179.982 261H178.982V262H179.982V261ZM183.276 261V262H183.894L184.171 261.447L183.276 261ZM184.1 259.353L184.994 258.906L184.1 257.117L183.205 258.906L184.1 259.353ZM184.923 261L184.029 261.447L184.305 262H184.923V261ZM185.747 261V262H186.747V261H185.747ZM186.989 257.583L187.837 258.113L187.844 258.103L187.85 258.092L186.989 257.583ZM187.409 252.741H188.409V252.731L188.409 252.721L187.409 252.741ZM181.07 251.256L180.072 251.318L180.08 251.446L180.12 251.567L181.07 251.256ZM180.857 247.825L179.859 247.887L180.857 247.825ZM179.159 247.823H178.159H179.159ZM185.762 254.412H186.762V253.412H185.762V254.412ZM185.762 257.706V258.706H186.762V257.706H185.762ZM184.938 257.706H183.938V258.706H184.938V257.706ZM184.938 254.412M184.115 254.412H185.115V253.412H184.115V254.412ZM184.115 257.706V258.706H185.115V257.706H184.115ZM183.291 257.706H182.291V258.706H183.291V257.706ZM183.291 254.412M182.468 254.412H183.468V253.412H182.468V254.412ZM182.468 257.706V258.706H183.468V257.706H182.468ZM181.644 257.706H180.644V258.706H181.644V257.706ZM181.644 254.412M179.159 255.235L179.995 254.688L179.265 253.572L178.429 254.12L177.592 254.667L178.322 255.783L179.159 255.235ZM178.429 254.12L179.265 253.572C178.485 252.379 176.863 251.958 175.599 252.608L176.056 253.498L176.513 254.387C176.873 254.202 177.375 254.337 177.592 254.667L178.429 254.12ZM176.056 253.498L176.513 254.387L176.702 254.29L176.245 253.4L175.788 252.511L175.599 252.608L176.056 253.498ZM176.245 253.4L175.788 252.511C175.122 252.853 174.834 253.656 175.097 254.338L176.03 253.977L176.963 253.617C177.017 253.757 177.006 253.893 176.967 253.997C176.929 254.101 176.846 254.216 176.702 254.29L176.245 253.4ZM176.03 253.977L175.097 254.338L176.108 256.953L177.04 256.592L177.973 256.231L176.963 253.617L176.03 253.977ZM177.04 256.592L176.108 256.953C176.326 257.518 176.83 258.24 177.293 258.642L177.949 257.887L178.605 257.132C178.39 256.946 178.075 256.496 177.973 256.231L177.04 256.592ZM177.949 257.887C177.311 258.658 177.311 258.658 177.311 258.658C177.311 258.658 177.311 258.658 177.311 258.658C177.311 258.657 177.311 258.657 177.311 258.658C177.311 258.658 177.311 258.658 177.312 258.658C177.312 258.658 177.313 258.659 177.315 258.661C177.318 258.663 177.323 258.667 177.329 258.673C177.343 258.684 177.363 258.701 177.389 258.723C177.441 258.767 177.516 258.831 177.606 258.911C177.788 259.071 178.028 259.288 178.265 259.521C178.506 259.758 178.723 259.991 178.873 260.185C178.949 260.283 178.99 260.349 179.009 260.384C179.037 260.439 178.982 260.362 178.982 260.201H179.982H180.982C180.982 259.882 180.864 259.616 180.781 259.458C180.688 259.28 180.571 259.11 180.456 258.962C180.225 258.663 179.934 258.357 179.667 258.094C179.395 257.828 179.126 257.584 178.927 257.409C178.827 257.321 178.743 257.249 178.684 257.199C178.654 257.174 178.631 257.154 178.614 257.14C178.606 257.133 178.599 257.128 178.595 257.124C178.592 257.122 178.591 257.12 178.589 257.119C178.589 257.119 178.588 257.118 178.588 257.118C178.587 257.118 178.587 257.117 178.587 257.117C178.587 257.117 178.587 257.117 178.587 257.117C178.587 257.117 178.587 257.117 177.949 257.887ZM179.982 260.201H178.982V261H179.982H180.982V260.201H179.982ZM179.982 261V262H183.276V261V260H179.982V261ZM183.276 261L184.171 261.447L184.994 259.8L184.1 259.353L183.205 258.906L182.382 260.553L183.276 261ZM184.1 259.353L183.205 259.8L184.029 261.447L184.923 261L185.818 260.553L184.994 258.906L184.1 259.353ZM184.923 261V262H185.747V261V260H184.923V261ZM185.747 261H186.747V260.201H185.747H184.747V261H185.747ZM185.747 260.201H186.747C186.747 260.271 186.741 260.201 186.862 259.916C186.961 259.682 187.1 259.406 187.248 259.13C187.395 258.858 187.543 258.602 187.655 258.414C187.711 258.32 187.757 258.244 187.789 258.191C187.805 258.165 187.818 258.145 187.826 258.132C187.83 258.125 187.833 258.12 187.835 258.117C187.836 258.115 187.837 258.114 187.837 258.114C187.837 258.113 187.837 258.113 187.837 258.113C187.837 258.113 187.838 258.113 187.837 258.113C187.837 258.113 187.837 258.113 187.837 258.113C187.837 258.113 187.837 258.113 186.989 257.583C186.142 257.053 186.142 257.053 186.142 257.053C186.141 257.053 186.141 257.053 186.141 257.053C186.141 257.053 186.141 257.053 186.141 257.054C186.141 257.054 186.14 257.055 186.14 257.055C186.139 257.056 186.138 257.058 186.137 257.06C186.134 257.065 186.13 257.071 186.125 257.079C186.115 257.095 186.101 257.119 186.083 257.148C186.047 257.207 185.996 257.29 185.936 257.393C185.815 257.596 185.652 257.877 185.488 258.181C185.326 258.481 185.154 258.82 185.02 259.136C184.908 259.401 184.747 259.816 184.747 260.201H185.747ZM186.989 257.583L187.85 258.092C188.023 257.8 188.157 257.444 188.249 257.115C188.34 256.788 188.409 256.41 188.409 256.064H187.409H186.409C186.409 256.17 186.383 256.359 186.321 256.581C186.26 256.802 186.184 256.98 186.129 257.073L186.989 257.583ZM187.409 256.064H188.409V252.741H187.409H186.409V256.064H187.409ZM187.409 252.741L188.409 252.721C188.382 251.409 187.28 250.41 185.997 250.41V251.41V252.41C186.257 252.41 186.406 252.603 186.409 252.762L187.409 252.741ZM185.997 251.41V250.41C185.104 250.41 184.298 251.111 184.298 252.076H185.298H186.298C186.298 252.304 186.118 252.41 185.997 252.41V251.41ZM185.298 252.076H184.298V252.342H185.298H186.298V252.076H185.298ZM185.298 252.342H186.298C186.298 251.01 185.18 250.01 183.901 250.01V251.01V252.01C184.166 252.01 184.298 252.203 184.298 252.342H185.298ZM183.901 251.01V250.01C183.009 250.01 182.203 250.711 182.203 251.676H183.203H184.203C184.203 251.905 184.022 252.01 183.901 252.01V251.01ZM183.203 251.676H182.203V251.942H183.203H184.203V251.676H183.203ZM183.203 251.942H184.203C184.203 250.61 183.084 249.61 181.806 249.61V250.61V251.61C182.071 251.61 182.203 251.803 182.203 251.942H183.203ZM181.806 250.61V249.61C180.913 249.61 180.107 250.312 180.107 251.277H181.107H182.107C182.107 251.505 181.927 251.61 181.806 251.61V250.61ZM181.107 251.277H180.107V251.543H181.107H182.107V251.277H181.107ZM181.107 251.543H182.107C182.107 251.361 182.089 251.153 182.02 250.945L181.07 251.256L180.12 251.567C180.109 251.536 180.107 251.515 180.106 251.512C180.106 251.509 180.107 251.518 180.107 251.543H181.107ZM181.07 251.256L182.068 251.194L181.855 247.763L180.857 247.825L179.859 247.887L180.072 251.318L181.07 251.256ZM180.857 247.825L181.855 247.763C181.793 246.768 180.962 246 179.982 246V247V248C179.942 248 179.913 247.984 179.896 247.968C179.878 247.952 179.861 247.923 179.859 247.887L180.857 247.825ZM179.982 247V246C178.97 246 178.159 246.819 178.159 247.823H179.159H180.159C180.159 247.919 180.079 248 179.982 248V247ZM179.159 247.823H178.159V251.118H179.159H180.159V247.823H179.159ZM179.159 251.118H178.159V255.235H179.159H180.159V251.118H179.159ZM184.938 254.412V255.412L185.762 255.412V254.412V253.412H184.938V254.412ZM185.762 254.412H184.762V257.706H185.762H186.762V254.412H185.762ZM185.762 257.706V256.706H184.938V257.706V258.706H185.762V257.706ZM184.938 257.706H185.938V254.412H184.938H183.938V257.706H184.938ZM184.938 254.412M183.291 254.412V255.412L184.115 255.412V254.412V253.412H183.291V254.412ZM184.115 254.412H183.115V257.706H184.115H185.115V254.412H184.115ZM184.115 257.706V256.706H183.291V257.706V258.706H184.115V257.706ZM183.291 257.706H184.291V254.412H183.291H182.291V257.706H183.291ZM183.291 254.412M181.644 254.412V255.412L182.468 255.412V254.412V253.412H181.644V254.412ZM182.468 254.412H181.468V257.706H182.468H183.468V254.412H182.468ZM182.468 257.706V256.706H181.644V257.706V258.706H182.468V257.706ZM181.644 257.706H182.644V254.412H181.644H180.644V257.706H181.644ZM181.644 254.412" fill="black" fill-opacity="0.8" mask="url(#path-27-outside-1_129_2764)"/>
</g>
<g filter="url(#filter4_d_129_2764)">
<circle cx="252" cy="124" r="17" fill="white"/>
</g>
<path d="M253.417 127.978C253.307 127.978 253.196 127.938 253.108 127.85C252.939 127.681 252.939 127.401 253.108 127.232L256.34 124L253.108 120.768C252.939 120.599 252.939 120.319 253.108 120.15C253.277 119.981 253.557 119.981 253.727 120.15L257.267 123.691C257.437 123.86 257.437 124.14 257.267 124.309L253.727 127.85C253.639 127.938 253.528 127.978 253.417 127.978Z" fill="#636B81"/>
<path d="M256.859 124.438H247.042C246.802 124.438 246.604 124.239 246.604 124C246.604 123.761 246.802 123.562 247.042 123.562H256.859C257.098 123.562 257.297 123.761 257.297 124C257.297 124.239 257.098 124.438 256.859 124.438Z" fill="#636B81"/>
<circle cx="22.4913" cy="317.491" r="2.49116" transform="rotate(180 22.4913 317.491)" fill="#F1F3F7"/>
<path d="M32.267 303.678L30.4211 305.524L29.0866 304.189L30.9325 302.343L28.8462 300.257L30.2524 298.851L32.3386 300.937L34.1896 299.086L35.5242 300.421L33.6732 302.272L35.6724 304.271L34.2663 305.677L32.267 303.678Z" fill="#B2D8FE"/>
<circle cx="2.49116" cy="2.49116" r="2.49116" transform="matrix(1 0 0 -1 61.541 98.9824)" fill="#C1CBD4"/>
<circle cx="2.49116" cy="2.49116" r="2.49116" transform="matrix(1 0 0 -1 34.541 103.982)" fill="#F1F3F7"/>
<path d="M32.2564 130.678L34.1023 132.524L35.4369 131.189L33.591 129.343L35.6772 127.257L34.271 125.851L32.1848 127.937L30.3338 126.086L28.9993 127.421L30.8503 129.272L28.851 131.271L30.2571 132.677L32.2564 130.678Z" fill="#B2D8FE"/>
<circle cx="254.509" cy="327.509" r="2.49116" transform="rotate(180 254.509 327.509)" fill="#C1CBD4"/>
<circle cx="216.491" cy="322.491" r="2.49116" transform="rotate(180 216.491 322.491)" fill="#F1F3F7"/>
<defs>
<filter id="filter0_d_129_2764" x="0" y="46" width="280" height="280" filterUnits="userSpaceOnUse" color-interpolation-filters="sRGB">
<feFlood flood-opacity="0" result="BackgroundImageFix"/>
<feColorMatrix in="SourceAlpha" type="matrix" values="0 0 0 0 0 0 0 0 0 0 0 0 0 0 0 0 0 0 127 0" result="hardAlpha"/>
<feOffset dy="4"/>
<feGaussianBlur stdDeviation="10"/>
<feComposite in2="hardAlpha" operator="out"/>
<feColorMatrix type="matrix" values="0 0 0 0 0.905882 0 0 0 0 0.933333 0 0 0 0 0.984314 0 0 0 0.15 0"/>
<feBlend mode="normal" in2="BackgroundImageFix" result="effect1_dropShadow_129_2764"/>
<feBlend mode="normal" in="SourceGraphic" in2="effect1_dropShadow_129_2764" result="shape"/>
</filter>
<filter id="filter1_d_129_2764" x="-58" y="-51" width="370" height="395" filterUnits="userSpaceOnUse" color-interpolation-filters="sRGB">
<feFlood flood-opacity="0" result="BackgroundImageFix"/>
<feColorMatrix in="SourceAlpha" type="matrix" values="0 0 0 0 0 0 0 0 0 0 0 0 0 0 0 0 0 0 127 0" result="hardAlpha"/>
<feOffset dy="4"/>
<feGaussianBlur stdDeviation="50"/>
<feComposite in2="hardAlpha" operator="out"/>
<feColorMatrix type="matrix" values="0 0 0 0 0.388235 0 0 0 0 0.419608 0 0 0 0 0.505882 0 0 0 0.15 0"/>
<feBlend mode="normal" in2="BackgroundImageFix" result="effect1_dropShadow_129_2764"/>
<feBlend mode="normal" in="SourceGraphic" in2="effect1_dropShadow_129_2764" result="shape"/>
</filter>
<filter id="filter2_d_129_2764" x="-73" y="16" width="400" height="250" filterUnits="userSpaceOnUse" color-interpolation-filters="sRGB">
<feFlood flood-opacity="0" result="BackgroundImageFix"/>
<feColorMatrix in="SourceAlpha" type="matrix" values="0 0 0 0 0 0 0 0 0 0 0 0 0 0 0 0 0 0 127 0" result="hardAlpha"/>
<feOffset dy="4"/>
<feGaussianBlur stdDeviation="50"/>
<feComposite in2="hardAlpha" operator="out"/>
<feColorMatrix type="matrix" values="0 0 0 0 0.388235 0 0 0 0 0.419608 0 0 0 0 0.505882 0 0 0 0.15 0"/>
<feBlend mode="normal" in2="BackgroundImageFix" result="effect1_dropShadow_129_2764"/>
<feBlend mode="normal" in="SourceGraphic" in2="effect1_dropShadow_129_2764" result="shape"/>
</filter>
<filter id="filter3_d_129_2764" x="172" y="244" width="19.4087" height="22" filterUnits="userSpaceOnUse" color-interpolation-filters="sRGB">
<feFlood flood-opacity="0" result="BackgroundImageFix"/>
<feColorMatrix in="SourceAlpha" type="matrix" values="0 0 0 0 0 0 0 0 0 0 0 0 0 0 0 0 0 0 127 0" result="hardAlpha"/>
<feOffset dy="1"/>
<feGaussianBlur stdDeviation="1.5"/>
<feColorMatrix type="matrix" values="0 0 0 0 0 0 0 0 0 0 0 0 0 0 0 0 0 0 0.2 0"/>
<feBlend mode="normal" in2="BackgroundImageFix" result="effect1_dropShadow_129_2764"/>
<feBlend mode="normal" in="SourceGraphic" in2="effect1_dropShadow_129_2764" result="shape"/>
</filter>
<filter id="filter4_d_129_2764" x="175" y="51" width="154" height="154" filterUnits="userSpaceOnUse" color-interpolation-filters="sRGB">
<feFlood flood-opacity="0" result="BackgroundImageFix"/>
<feColorMatrix in="SourceAlpha" type="matrix" values="0 0 0 0 0 0 0 0 0 0 0 0 0 0 0 0 0 0 127 0" result="hardAlpha"/>
<feOffset dy="4"/>
<feGaussianBlur stdDeviation="30"/>
<feComposite in2="hardAlpha" operator="out"/>
<feColorMatrix type="matrix" values="0 0 0 0 0.388235 0 0 0 0 0.419608 0 0 0 0 0.505882 0 0 0 0.25 0"/>
<feBlend mode="normal" in2="BackgroundImageFix" result="effect1_dropShadow_129_2764"/>
<feBlend mode="normal" in="SourceGraphic" in2="effect1_dropShadow_129_2764" result="shape"/>
</filter>
</defs>
</svg>
